<?xml version="1.0" encoding="UTF-8" standalone="no"?>
<!DOCTYPE svg PUBLIC "-//W3C//DTD SVG 1.1//EN" "http://www.w3.org/Graphics/SVG/1.1/DTD/svg11.dtd">
<svg width="100%" height="100%" viewBox="0 0 512 512" version="1.1" xmlns="http://www.w3.org/2000/svg" xmlns:xlink="http://www.w3.org/1999/xlink" xml:space="preserve" xmlns:serif="http://www.serif.com/" style="fill-rule:evenodd;clip-rule:evenodd;stroke-linejoin:round;stroke-miterlimit:2;">
    <g id="crystal-sun-circle">
        <g id="sun">
            <circle id="sun-backer" cx="256" cy="256" r="256" style="fill:rgb(2,0,26);"/>
            <path id="sun-main" d="M227.761,19.017C113.573,34.56 17.543,130.263 17.543,248.699C17.543,275.164 18.795,300.644 27.079,326.06C29.257,332.751 32.054,339.597 38.101,343.924C44.82,348.732 61.003,345.653 68.962,345.653L364.949,345.653C398.641,345.653 437.561,351.131 470.72,345.406C482.308,343.403 485.39,322.273 487.798,312.606C498.429,269.882 496.149,223.122 482.262,181.431C447.299,76.46 339.151,3.854 227.761,19.017M39.406,356.331C41.467,363.484 46.748,369.743 53.492,373.831C59.46,377.451 69.776,375.559 76.483,375.559L389.286,375.559C419.232,375.559 461.457,391.582 471.61,356.331L39.406,356.331M57.904,389.965C73.722,417.727 107.439,407.113 135.643,407.113L364.359,407.113C393.333,407.113 436.886,418.441 453.112,389.965L57.904,389.965M86.495,423.601C101.295,444.538 134.121,437.054 157.128,437.054L350.526,437.054C374.071,437.054 409.401,444.993 424.523,423.601L86.495,423.601M128.537,457.235L128.537,458.917C146.2,469.566 169.07,465.643 189.079,465.643L320.255,465.643C340.264,465.643 365.132,470.203 382.479,458.917C362.814,450.665 328.207,457.235 306.801,457.235L128.537,457.235M210.943,489.188L210.943,490.869C240.4,496.357 270.617,496.357 300.074,490.869L271.485,489.188L210.943,489.188" style="fill:rgb(249,243,235);fill-rule:nonzero;"/>
        </g>
        <g id="crystal">
            <path id="crystal-backer" d="M199.701,64.361C201.551,60.648 204.568,60.973 210.19,57.664C223.618,49.761 247.042,36.841 265.184,26.966C270.202,24.236 274.428,19.024 278.701,19.644C282.973,20.264 285.85,24.57 290.815,30.685C316.082,64.193 342.129,94.064 371.559,134.456C375.172,139.417 381.313,144.657 382.561,149.842C383.807,155.027 380.21,160.428 379.042,165.566C367.557,216.066 356.478,256.79 345.558,293.714C368.016,283.089 388.15,274.478 401.975,271.334C408.057,269.952 414.476,268.816 416.219,270.655C417.964,272.494 413.69,278.456 412.438,282.364C400.495,319.665 388.891,358.177 363.123,417.911C351.434,445.009 352.761,462.514 345.1,474.148C330.234,496.719 287.321,501.739 261.631,500.343C230.609,498.659 175.648,490.059 161.12,473.715C131.646,440.554 128.033,390.611 101.306,307.387C101.306,307.387 92.727,287.809 95.899,278.403C102.892,257.665 123.841,194.536 134.194,167.216C136.53,161.051 136.506,155.78 139.301,155.09C142.096,154.399 146.612,159.462 150.962,163.073C163.217,173.244 179.492,190.671 202.67,212.995C201.306,170.413 198.133,110.756 198.427,81.277C198.514,72.685 197.741,68.297 199.701,64.361Z" style="fill:rgb(2,0,26);fill-rule:nonzero;"/>
            <g id="crystal-main">
                <path d="M294.182,490.109C301.679,488.907 303.472,482.258 306.551,476.11C306.551,476.11 399.389,294.631 406.204,278.259L360.461,295.058L344.452,302.196L294.182,490.109Z" style="fill:rgb(11,164,175);fill-rule:nonzero;"/>
                <path d="M398.327,303.457L306.843,487.309C313.752,486.289 328.323,483.105 332.916,477.511C340.916,467.736 389.859,328.909 394.032,318.389C395.742,314.082 399.278,308.074 398.327,303.457Z" style="fill:rgb(11,164,175);fill-rule:nonzero;"/>
                <path d="M371.321,175.602L230.362,489.176C230.362,489.176 261.903,493.621 271.437,493.84C276.924,493.967 287.558,490.492 287.558,490.492L371.321,175.602Z" style="fill:rgb(11,164,175);fill-rule:nonzero;"/>
                <path d="M206.865,66.109L206.865,67.041L372.096,144.502L286.588,34.378L278.71,26.751L206.865,66.109Z" style="fill:rgb(11,164,175);fill-rule:nonzero;"/>
                <path d="M204.999,70.761L208.732,218.215L374.898,150.089L204.999,70.761Z" style="fill:rgb(11,164,175);fill-rule:nonzero;"/>
                <path d="M226.469,488.242L374.898,156.004L209.295,225.433L215.294,484.11L226.469,488.242Z" style="fill:rgb(11,164,175);fill-rule:nonzero;"/>
                <path d="M146.2,169.069C156.51,248.883 198.18,445.69 202.024,464.911C203.454,472.066 202.979,481.417 210.613,484.509L204.052,224.135L146.2,169.069Z" style="fill:rgb(11,164,175);fill-rule:nonzero;"/>
                <path d="M139.521,170.935C131.31,196.16 103.853,269.841 104.307,280.126C104.861,292.652 172.629,441.568 180.202,459.311C184.649,469.73 186.845,478.639 199.266,480.776L185.626,409.849L139.521,170.935Z" style="fill:rgb(11,164,175);fill-rule:nonzero;"/>
                <path d="M108.585,309.99C117.536,348.671 131.576,386.664 142.729,424.781C149.281,447.175 154.167,466.939 179.532,474.243C166.683,436.508 147.985,399.796 132.185,363.186C125.158,346.904 119.703,323.748 108.585,309.99Z" style="fill:rgb(11,164,175);fill-rule:nonzero;"/>
            </g>
        </g>
    </g>
</svg>
